<svg width="124" height="67" fill="none" xmlns="http://www.w3.org/2000/svg">
  <path d="M37.139 48.484c-1.2.027-2.197-.5-2.995-1.58-.771-1.107-1.176-2.492-1.213-4.152-.046-2.009.045-3.847.274-5.513.228-1.694.627-3.485 1.198-5.374.248-.81.608-1.394 1.08-1.753.47-.359 1.226-.55 2.265-.574.586-.013.988.071 1.205.254.244.182.37.46.379.835.005.215-.125.941-.39 2.18-.244.997-.437 1.899-.579 2.706-.469 2.825-.693 4.705-.671 5.643.013.562.088.962.227 1.2.138.212.354.314.647.307.4-.009.883-.422 1.45-1.239.595-.817 1.207-2.05 1.836-3.7.655-1.65 1.276-3.673 1.861-6.071.195-.809.501-1.392.92-1.75.445-.358 1.107-.548 1.986-.568.613-.014 1.04.057 1.284.212.243.129.369.394.378.795.015.67-.276 2.512-.874 5.527-.668 3.446-.993 5.57-.975 6.373.012.51.127.909.347 1.198.22.263.502.39.848.383.533-.012 1.152-.348 1.857-1.007.73-.687 1.692-1.78 2.884-3.282.31-.382.666-.578 1.066-.587.346-.008.616.147.81.464.22.316.337.756.35 1.319.024 1.07-.21 1.907-.703 2.508-1.113 1.445-2.326 2.639-3.637 3.58-1.285.94-2.766 1.43-4.444 1.468-1.279.03-2.236-.445-2.871-1.422-.609-.977-.933-2.363-.974-4.158-.412 1.832-1.059 3.253-1.942 4.265-.884.985-1.846 1.49-2.885 1.513z" fill="#0C7193"/>
  <path d="M57.065 26.444c-1.12.025-1.964-.21-2.535-.706-.572-.523-.868-1.253-.89-2.19-.02-.938.321-1.723 1.026-2.355.732-.66 1.644-1.003 2.736-1.027.985-.023 1.79.2 2.414.668.623.468.945 1.144.965 2.028.025 1.071-.302 1.936-.98 2.595-.679.631-1.591.96-2.736.987zm.17 21.581c-1.732.04-3.011-.548-3.838-1.761-.801-1.215-1.224-2.84-1.27-4.875-.028-1.206.084-2.749.334-4.63a45.837 45.837 0 011.078-5.33c.22-.863.527-1.46.92-1.79.392-.331 1.027-.506 1.906-.526 1.36-.031 2.049.408 2.07 1.319.015.67-.203 2.229-.654 4.678-.572 2.96-.847 4.963-.823 6.008.018.803.139 1.417.361 1.84.223.424.588.63 1.094.619.48-.011 1.071-.36 1.775-1.046s1.64-1.766 2.805-3.24c.311-.382.667-.577 1.066-.587.347-.008.617.147.81.464.22.317.338.756.35 1.319.025 1.071-.21 1.907-.702 2.508-2.564 3.3-4.991 4.978-7.282 5.03z" fill="#0C7193"/>
  <path d="M76.514 43.002c.586-.04 1.03.164 1.334.613.33.421.501.953.516 1.596.015.67-.132 1.262-.44 1.779-.281.515-.688.779-1.221.791-.96.022-1.865.03-2.718.022-.827-.008-1.56-.018-2.2-.03-2.453-.051-4.186-.065-5.198-.042-.346.008-.85.14-1.51.396-.847.287-1.43.435-1.75.442-1.411.032-2.138-.862-2.18-2.683-.027-1.233.38-2.635 1.224-4.209.844-1.6 1.955-3.153 3.333-4.658 1.379-1.505 2.816-2.771 4.312-3.797l-5.63.29c-.586.04-1.044-.15-1.373-.572-.304-.448-.462-.98-.476-1.597-.015-.643.119-1.208.401-1.697.308-.516.729-.78 1.261-.793 1.172-.027 2.627.034 4.362.182.294.02.921.06 1.882.118.987.058 1.894.077 2.72.058.266-.006.77-.125 1.511-.356.133-.03.384-.102.755-.218.397-.116.729-.178.995-.184.426-.01.777.17 1.052.54.301.367.46.94.479 1.716.019.858-.179 1.546-.593 2.064-.388.518-.99.987-1.807 1.408-.923.45-1.999 1.211-3.227 2.285a31.31 31.31 0 00-3.477 3.576c-1.09 1.284-1.889 2.495-2.396 3.632l10.06-.672z" fill="#0C7193"/>
  <path d="M84.082 44.683a3 3 0 002.993 3.198h32.711a2.216 2.216 0 002.213-2.218L124 21.442c0-.756-.452-1.447-.819-1.908L108.136 1.278c-1.69-1.587-3.317-1.587-5.007 0L86.804 22.075a7 7 0 00-1.479 3.86l-1.243 18.748z" fill="#D57C05"/>
  <path d="M119.373 6.082c1.078 0 1.951.873 1.934 1.949-.091 5.705-.551 11.579-1.01 17.454l-.001.001c-.459 5.875-.919 11.752-1.01 17.46a1.976 1.976 0 01-1.967 1.95H87.071c-.317 0-.476-.066-.55-.167-.077-.102-.082-.256-.042-.471.025-.132.064-.279.108-.44.026-.099.055-.204.082-.314a3.93 3.93 0 00.132-.94c0-11.078.66-21.11 1.367-31.876l.182-2.78a1.952 1.952 0 011.947-1.826h29.076z" fill="#fff" stroke="#828282" stroke-width=".1"/>
  <path d="M96.38 14.196h1.247a6.857 6.857 0 011.736-1.623l.08-.88v-.005l.025-.264a1.05 1.05 0 00-1.07-1.04 1.312 1.312 0 00-1.278 1.17c-.012.134-.002.262.029.38a1.101 1.101 0 00-.372-.063c-.647 0-1.219.524-1.278 1.168a1.047 1.047 0 00.88 1.157zM109.392 13.895c.067.1.129.199.185.301h1.083a1.314 1.314 0 001.091-1.157 1.052 1.052 0 00-1.065-1.168c-.134 0-.262.021-.384.063.053-.118.086-.246.098-.38a1.054 1.054 0 00-1.065-1.17c-.601 0-1.141.456-1.259 1.04l-.024.264v.005l-.072.789c.564.384 1.04.86 1.412 1.413z" fill="#0C7193"/>
  <path d="M97.06 16.952c-.192 2.116.66 3.425 2.685 4.202l-.177 1.953a.24.24 0 00.061.186c.043.05.108.076.177.076h.003l.879-.01.086-.945a.292.292 0 01.286-.262c.147 0 .252.115.238.262l-.085.937 1.305-.016.083-.921a.29.29 0 01.286-.262c.145 0 .252.115.239.262l-.084.916 1.302-.015.082-.901a.292.292 0 01.286-.262c.147 0 .252.115.238.262l-.081.892.869-.01h.049a.294.294 0 00.286-.262l.178-1.95c1.424-.527 2.624-1.532 3.152-2.95 1.1-2.961-1.105-6.333-5.735-6.333-3.279 0-6.34 2.204-6.608 5.151zm8.208-.623c.545-.262 1.163-.05 1.378.474.212.521-.058 1.158-.604 1.42-.548.258-1.164.049-1.378-.475-.215-.523.056-1.157.604-1.419zm-2.158 2.362l.783 1.602h-1.854l1.071-1.602zm-2.487-2.437c.549-.262 1.167-.05 1.378.474.215.52-.055 1.157-.601 1.419-.548.262-1.166.05-1.378-.474-.214-.522.056-1.157.601-1.42z" fill="#0C7193"/>
  <path d="M109.137 25.447a1.307 1.307 0 01-1.192 1.159h-.177a1.043 1.043 0 01-.979-1.029l.024-.264v-.005l.093-1.018-.618-.679a.864.864 0 00.31-.578l.146-1.603c.131-.058.259-.115.383-.18l1.416 1.555h1.334c.553.089.934.573.881 1.157a1.31 1.31 0 01-1.278 1.168c-.134 0-.257-.021-.372-.063.031.118.041.246.029.38zM98.182 25.578a1.313 1.313 0 01-1.166 1.028h-.178a1.046 1.046 0 01-.981-1.159c.012-.133.045-.261.097-.38a1.193 1.193 0 01-.383.064 1.05 1.05 0 01-1.065-1.168 1.313 1.313 0 011.09-1.157h1.335l1.71-1.565c.173.093.353.185.548.27l-.145 1.596a.74.74 0 00.084.424l-.83.76-.092 1.017v.005l-.024.265z" fill="#0C7193"/>
  <path d="M84.082 44.683a3 3 0 002.994 3.199h32.71a2.216 2.216 0 002.213-2.22L124 21.443c0-.47-.146-.904-.394-1.263l-18.472 19.916a4.384 4.384 0 01-6.007 0l-13.792-14.28-1.253 18.868z" fill="#FDC804"/>
  <path d="M84.717 46.715a3 3 0 002.374 1.166h32.696c.754 0 1.419-.378 1.819-.955L105.483 28.63a4.384 4.384 0 00-6.008 0L84.653 46.633l.064.082z" fill="#FFDB2D"/>
  <path d="M32.668 57.033c.267-.006.47.123.609.388.166.291.255.664.265 1.12.02.857-.188 1.706-.622 2.546-.868 1.681-2.038 2.98-3.51 3.899-1.444.944-2.939 1.434-4.484 1.469-1.572.036-2.896-.188-3.973-.673-1.077-.458-2-1.174-2.767-2.147-.768-.948-1.517-2.217-2.246-3.808-.757-1.644-1.384-2.876-1.883-3.695-.47-.793-.964-1.372-1.478-1.735-.515-.363-1.174-.616-1.977-.759-2.97-.521-5.388-1.94-7.253-4.256-1.838-2.316-2.8-5.335-2.884-9.058-.092-4.071.559-7.677 1.953-10.817 1.422-3.141 3.379-5.584 5.871-7.33 2.52-1.745 5.324-2.653 8.414-2.724 2.37-.054 4.514.433 6.43 1.46 1.942 1.028 3.497 2.574 4.663 4.637 1.165 2.037 1.781 4.502 1.847 7.394.076 3.375-.36 6.427-1.312 9.155-.95 2.728-2.298 5.01-4.042 6.845-1.744 1.835-3.767 3.154-6.067 3.957.674.36 1.26.896 1.755 1.608.523.712 1.08 1.744 1.67 3.097.647 1.486 1.324 2.543 2.03 3.17.735.626 1.621.927 2.66.904.88-.02 1.725-.348 2.536-.983.813-.608 1.723-1.607 2.731-2.997.31-.435.665-.658 1.064-.667zm-18.971-7.967c2.078-.048 3.888-.732 5.43-2.054 1.57-1.322 2.755-3.131 3.556-5.427.8-2.323 1.167-4.93 1.101-7.823-.072-3.188-.793-5.583-2.162-7.186-1.37-1.63-3.107-2.421-5.211-2.373-2.025.046-3.821.744-5.39 2.093-1.542 1.321-2.727 3.13-3.555 5.427-.827 2.296-1.208 4.891-1.142 7.784.072 3.187.793 5.596 2.163 7.226 1.369 1.603 3.105 2.38 5.21 2.333z" fill="#0C7193"/>
  <path d="M28.463 7.792c.672 0 1.264.16 1.776.48.523.31.928.757 1.216 1.344.288.587.432 1.27.432 2.048 0 .885-.16 1.664-.48 2.336-.31.672-.747 1.195-1.312 1.568-.565.363-1.216.544-1.952.544-.661 0-1.237-.144-1.728-.432a2.607 2.607 0 01-1.072-1.248l-.4 5.024h-.96l.736-9.248c.043-.437.064-.933.064-1.488 0-.33-.005-.576-.016-.736h.912l.016 1.376a2.75 2.75 0 011.136-1.152 3.316 3.316 0 011.632-.416zm-.32 7.472c.853 0 1.52-.32 2-.96.49-.65.736-1.541.736-2.672 0-.95-.23-1.685-.688-2.208-.448-.533-1.077-.8-1.888-.8-.864 0-1.547.325-2.048.976-.49.65-.736 1.547-.736 2.688 0 .97.224 1.712.672 2.224.448.501 1.099.752 1.952.752zm9.181-7.472c.896 0 1.579.23 2.048.688.48.448.72 1.12.72 2.016 0 .192-.005.336-.016.432l-.4 5.072h-.96l.4-5.008c.01-.085.016-.213.016-.384 0-.672-.16-1.168-.48-1.488-.32-.32-.805-.48-1.456-.48-.821 0-1.477.24-1.968.72-.48.48-.752 1.147-.816 2L34.044 16h-.976l.928-11.776h.976l-.4 5.04c.267-.48.64-.843 1.12-1.088.48-.256 1.024-.384 1.632-.384zm5.01.192h.976L42.67 16h-.976l.64-8.016zm1.376-3.312l-.096 1.248h-1.296l.096-1.248h1.296zm3.657 11.44c-.597 0-1.168-.09-1.712-.272a4.173 4.173 0 01-1.376-.8l.432-.736c.437.341.864.592 1.28.752.416.15.88.224 1.392.224.704 0 1.237-.112 1.6-.336.373-.235.56-.581.56-1.04 0-.288-.09-.523-.272-.704a1.805 1.805 0 00-.656-.432 8.67 8.67 0 00-1.072-.368c-.566-.17-1.019-.33-1.36-.48a2.415 2.415 0 01-.88-.656c-.235-.288-.352-.667-.352-1.136 0-.725.272-1.296.816-1.712.554-.416 1.301-.624 2.24-.624.565 0 1.093.096 1.584.288.49.181.89.437 1.2.768l-.432.752c-.726-.65-1.504-.976-2.336-.976-.672 0-1.19.123-1.552.368-.363.245-.544.608-.544 1.088 0 .288.085.523.256.704.181.181.4.325.656.432.267.096.63.213 1.088.352a11.2 11.2 0 011.344.464c.352.15.65.373.896.672.245.288.368.672.368 1.152 0 .693-.288 1.243-.864 1.648-.576.405-1.344.608-2.304.608zm8.834-8.32c.896 0 1.579.23 2.048.688.48.448.72 1.12.72 2.016 0 .192-.005.336-.016.432l-.4 5.072h-.96l.4-5.008c.01-.085.016-.213.016-.384 0-.672-.16-1.168-.48-1.488-.32-.32-.805-.48-1.456-.48-.821 0-1.477.24-1.968.72-.48.48-.752 1.147-.816 2L52.921 16h-.976l.928-11.776h.976l-.4 5.04c.267-.48.64-.843 1.12-1.088.48-.256 1.024-.384 1.632-.384zm5.01.192h.976L61.547 16h-.976l.64-8.016zm1.376-3.312l-.096 1.248h-1.296l.096-1.248h1.296zm5.225 3.12c.896 0 1.578.23 2.048.688.48.448.72 1.12.72 2.016 0 .192-.006.336-.016.432l-.4 5.072h-.96l.4-5.008c.01-.085.016-.213.016-.384 0-.672-.16-1.168-.48-1.488-.32-.32-.806-.48-1.456-.48-.822 0-1.478.24-1.968.72-.48.48-.752 1.147-.816 2L64.532 16h-.976l.464-5.792c.042-.437.064-.933.064-1.488 0-.33-.006-.576-.016-.736h.912l.016 1.392a2.73 2.73 0 011.136-1.168c.49-.277 1.05-.416 1.68-.416zm11.842.192l-.64 8.048c-.192 2.357-1.392 3.536-3.6 3.536-1.184 0-2.23-.293-3.136-.88l.272-.848c.501.33.965.56 1.392.688.426.128.922.192 1.488.192 1.61 0 2.49-.885 2.64-2.656l.16-1.824c-.256.48-.635.853-1.136 1.12-.49.267-1.03.4-1.616.4-1.067 0-1.915-.336-2.544-1.008-.63-.672-.944-1.573-.944-2.704 0-.843.154-1.584.464-2.224.31-.65.746-1.152 1.312-1.504.576-.352 1.237-.528 1.984-.528.672 0 1.253.144 1.744.432.49.288.853.693 1.088 1.216l.112-1.456h.96zm-4.032 6.912c.864 0 1.546-.304 2.048-.912.501-.608.752-1.445.752-2.512 0-.907-.235-1.605-.704-2.096-.459-.501-1.099-.752-1.92-.752-.875 0-1.563.31-2.064.928-.49.608-.736 1.45-.736 2.528 0 .917.224 1.616.672 2.096.448.48 1.098.72 1.952.72z" fill="#07485E"/>
</svg>
