<svg width="141" height="73" viewBox="0 0 141 73" fill="none" xmlns="http://www.w3.org/2000/svg">
<path d="M35.8764 57.1579C36.143 57.1518 36.346 57.2806 36.4853 57.5442C36.652 57.8338 36.7405 58.2052 36.7508 58.6584C36.7703 59.5115 36.5628 60.3565 36.1284 61.1932C35.2597 62.8667 34.0889 64.1604 32.616 65.0741C31.1704 66.0139 29.6744 66.5013 28.1282 66.5365C26.5552 66.5723 25.2298 66.349 24.1519 65.8667C23.0745 65.4111 22.1514 64.6986 21.3824 63.7291C20.6141 62.7864 19.8651 61.5231 19.1354 59.9392C18.3779 58.3027 17.7498 57.0767 17.2511 56.2611C16.7796 55.4716 16.2864 54.896 15.7713 54.5343C15.2563 54.1726 14.597 53.9209 13.7936 53.7791C10.821 53.2599 8.40151 51.8478 6.53514 49.543C4.69544 47.2376 3.73334 44.232 3.64883 40.5263C3.55642 36.474 4.2081 32.885 5.60387 29.7591C7.0263 26.6326 8.9847 24.2008 11.4791 22.4636C14.0001 20.7259 16.8069 19.8218 19.8994 19.7515C22.2722 19.6975 24.4171 20.1822 26.3343 21.2056C28.2781 22.2283 29.8336 23.7667 31.0007 25.8207C32.1672 27.848 32.7833 30.3013 32.849 33.1805C32.9256 36.5397 32.488 39.5771 31.5364 42.2927C30.5847 45.0084 29.2361 47.2797 27.4906 49.1065C25.7452 50.9333 23.7212 52.2463 21.4189 53.0455C22.0939 53.4036 22.6795 53.9371 23.1758 54.646C23.6988 55.3543 24.2557 56.3819 24.8465 57.7288C25.4937 59.2078 26.1712 60.2594 26.879 60.8834C27.6134 61.5069 28.5004 61.8068 29.5402 61.7832C30.4199 61.7631 31.2661 61.4372 32.0785 60.8052C32.8916 60.1999 33.8025 59.2056 34.8112 57.8223C35.1214 57.3885 35.4765 57.167 35.8764 57.1579ZM16.8906 49.2275C18.9701 49.1802 20.7817 48.4988 22.3255 47.1834C23.8959 45.8674 25.0818 44.0666 25.8832 41.7811C26.684 39.469 27.0516 36.8733 26.986 33.994C26.9136 30.8215 26.1924 28.4373 24.8223 26.8414C23.4517 25.2188 21.7133 24.4314 19.6071 24.4793C17.581 24.5254 15.783 25.2198 14.2132 26.5625C12.6695 27.878 11.4836 29.6787 10.6555 31.9648C9.82737 34.2509 9.44615 36.8336 9.51181 39.7128C9.58416 42.8853 10.3057 45.2829 11.6763 46.9054C13.0464 48.5014 14.7845 49.2754 16.8906 49.2275ZM39.658 53.431C38.4583 53.4582 37.4595 52.9342 36.6614 51.8587C35.8894 50.756 35.4845 49.3781 35.4468 47.7252C35.4012 45.7258 35.4929 43.8965 35.7218 42.2376C35.9501 40.5519 36.3496 38.7691 36.9202 36.8889C37.1685 36.0831 37.5287 35.5014 38.0007 35.1439C38.4727 34.7864 39.2285 34.5959 40.2682 34.5722C40.8547 34.5589 41.2568 34.6431 41.4743 34.8249C41.7185 35.006 41.8449 35.2832 41.8534 35.6565C41.8582 35.8697 41.728 36.5929 41.4627 37.8259C41.2186 38.8184 41.0257 39.7163 40.884 40.5198C40.4146 43.3312 40.1906 45.2034 40.2119 46.1365C40.2246 46.6963 40.3004 47.0947 40.4392 47.3316C40.5773 47.5419 40.793 47.6437 41.0863 47.637C41.4862 47.6279 41.9703 47.2168 42.5386 46.4037C43.1335 45.5899 43.7457 44.3624 44.3751 42.721C45.0311 41.0789 45.652 39.0643 46.2378 36.677C46.4328 35.8724 46.7397 35.2919 47.1583 34.9357C47.6036 34.5788 48.2662 34.3903 49.1459 34.3703C49.7591 34.3564 50.1875 34.4267 50.4311 34.5812C50.6741 34.709 50.8001 34.9729 50.8092 35.3728C50.8244 36.0393 50.5328 37.873 49.9344 40.8741C49.2658 44.3035 48.9405 46.4181 48.9588 47.2179C48.9703 47.7244 49.0861 48.1219 49.3061 48.4103C49.5254 48.6721 49.8084 48.799 50.155 48.7911C50.6882 48.779 51.3074 48.4448 52.0126 47.7886C52.7439 47.1052 53.706 46.0163 54.8989 44.5222C55.2103 44.1416 55.5659 43.9468 55.9658 43.9377C56.3124 43.9299 56.5827 44.0838 56.7766 44.3994C56.9971 44.7145 57.1138 45.152 57.1266 45.7118C57.1509 46.7782 56.9165 47.6104 56.4233 48.2085C55.3092 49.6475 54.0959 50.8354 52.7836 51.7721C51.4979 52.7083 50.0153 53.1954 48.3358 53.2336C47.0561 53.2627 46.0984 52.791 45.4628 51.8186C44.8538 50.8455 44.5289 49.4659 44.4882 47.6797C44.0763 49.5028 43.4284 50.9179 42.5444 51.925C41.6599 52.9053 40.6977 53.4073 39.658 53.431ZM58.7998 31.5101C57.6801 31.5356 56.8345 31.3014 56.2631 30.8076C55.6911 30.2871 55.3945 29.5604 55.3732 28.6273C55.3519 27.6942 55.6942 26.9129 56.4 26.2833C57.1319 25.6265 58.0444 25.2857 59.1374 25.2608C60.1238 25.2384 60.9291 25.4601 61.5532 25.9261C62.1773 26.392 62.4994 27.0648 62.5195 27.9446C62.5438 29.011 62.2167 29.872 61.5381 30.5276C60.8589 31.1565 59.9462 31.484 58.7998 31.5101ZM58.9696 52.9918C57.2367 53.0312 55.9564 52.4468 55.1286 51.2387C54.3275 50.0299 53.9039 48.4125 53.8577 46.3863C53.8303 45.1866 53.942 43.6504 54.1927 41.7775C54.4694 39.8774 54.8292 38.1088 55.272 36.4716C55.4925 35.613 55.799 35.0192 56.1916 34.6902C56.5842 34.3612 57.2204 34.1867 58.1002 34.1667C59.4598 34.1358 60.15 34.5735 60.1707 35.48C60.1859 36.1465 59.9679 37.6985 59.5166 40.136C58.9437 43.0832 58.6691 45.0766 58.6928 46.1163C58.711 46.9161 58.8316 47.5269 59.0546 47.9486C59.2776 48.3703 59.6424 48.5754 60.1489 48.5638C60.6288 48.5529 61.2211 48.206 61.9257 47.5232C62.6303 46.8403 63.566 45.7654 64.7329 44.2985C65.0443 43.918 65.4 43.7232 65.7998 43.7141C66.1464 43.7062 66.4167 43.8601 66.6106 44.1758C66.8312 44.4909 66.9478 44.9283 66.9606 45.4882C66.9849 46.5546 66.7505 47.3868 66.2573 47.9848C63.6916 51.2707 61.2623 52.9397 58.9696 52.9918ZM82.8579 43.3262C83.2045 43.3183 83.4748 43.4722 83.6687 43.7879C83.8892 44.1029 84.0059 44.5404 84.0187 45.1003C84.0412 46.0867 83.8068 46.9189 83.3154 47.5969C82.0995 49.2516 80.5691 50.5668 78.7242 51.5423C76.9059 52.5172 74.8371 53.0311 72.5177 53.0838C70.7048 53.125 69.1258 52.8942 67.7807 52.3913C66.4349 51.8618 65.3915 51.1386 64.6504 50.2219C63.9354 49.2779 63.5645 48.2194 63.5377 47.0464C63.4976 45.2869 64.1685 43.7112 65.5505 42.3194C66.9324 40.9276 68.9288 39.5752 71.5395 38.2622L64.9849 38.5713C64.399 38.6113 63.9412 38.4217 63.6116 38.0024C63.308 37.5558 63.1492 37.026 63.1352 36.4128C63.1206 35.773 63.2545 35.2098 63.5368 34.7232C63.8452 34.2094 64.2659 33.9465 64.7991 33.9343C66.0255 33.9064 67.6672 33.9625 69.7242 34.1024C70.1514 34.1194 70.9258 34.1551 72.0473 34.2096C73.1955 34.2635 74.1561 34.2817 74.9293 34.2641C75.1959 34.258 75.7 34.1399 76.4416 33.9096C76.5743 33.8799 76.826 33.8075 77.1968 33.6924C77.5943 33.5767 77.9263 33.5158 78.1929 33.5097C78.6195 33.5 78.9703 33.6788 79.2454 34.0459C79.5472 34.4125 79.7069 34.9823 79.7245 35.7555C79.744 36.6086 79.5592 37.2796 79.1703 37.7686C78.7813 38.2576 78.1645 38.6984 77.3199 39.091C74.9176 40.1859 72.9303 41.3514 71.3581 42.5875C69.7853 43.7969 69.0122 44.9881 69.039 46.1611C69.056 46.9076 69.4166 47.5129 70.1207 47.977C70.8248 48.4411 71.8566 48.6577 73.2163 48.6268C74.7092 48.5928 76.207 48.1853 77.7096 47.4043C79.2388 46.6227 80.5993 45.4581 81.791 43.9106C82.1024 43.5301 82.458 43.3353 82.8579 43.3262ZM93.2808 47.6503C93.8667 47.6103 94.3115 47.8136 94.615 48.2602C94.9447 48.6794 95.1168 49.209 95.1314 49.8488C95.1466 50.5153 95 51.1055 94.6916 51.6193C94.4099 52.1325 94.0025 52.3952 93.4693 52.4073C92.5095 52.4291 91.6028 52.4364 90.7491 52.4291C89.922 52.4213 89.1883 52.4113 88.5478 52.3992C86.0927 52.3483 84.3586 52.3344 83.3455 52.3574C82.9989 52.3653 82.4951 52.4968 81.8341 52.7519C80.9871 53.0379 80.4036 53.1845 80.0837 53.1918C78.6707 53.2239 77.9436 52.3336 77.9022 50.5207C77.8743 49.2944 78.2825 47.8981 79.1271 46.3318C79.971 44.7389 81.0827 43.1932 82.4622 41.6948C83.8417 40.1963 85.2801 38.9367 86.7772 37.9157L81.1423 38.2039C80.5564 38.2439 80.0986 38.0542 79.769 37.6349C79.4654 37.1884 79.3066 36.6585 79.2926 36.0454C79.278 35.4055 79.4119 34.8423 79.6942 34.3558C80.0025 33.842 80.4233 33.579 80.9565 33.5669C82.1295 33.5402 83.5846 33.6005 85.3218 33.7477C85.6156 33.7677 86.2434 33.8068 87.2049 33.8649C88.1932 33.9225 89.1005 33.9418 89.927 33.923C90.1936 33.917 90.6977 33.7988 91.4393 33.5686C91.572 33.5389 91.8237 33.4665 92.1945 33.3513C92.592 33.2356 92.924 33.1747 93.1906 33.1686C93.6172 33.1589 93.968 33.3377 94.2431 33.7049C94.5449 34.0714 94.7046 34.6413 94.7222 35.4144C94.7417 36.2675 94.5439 36.9522 94.1289 37.4684C93.7405 37.9841 93.1377 38.4512 92.3204 38.8699C91.397 39.3177 90.3207 40.0757 89.0914 41.1439C87.8621 42.2121 86.7022 43.3988 85.6116 44.7039C84.5205 45.9824 83.7211 47.1876 83.2134 48.3194L93.2808 47.6503Z" fill="#0C7193"/>
<path d="M100.147 49.461C100.032 51.1926 101.405 52.6606 103.14 52.6606H135.878C137.101 52.6606 138.092 51.6719 138.092 50.4522L140.095 26.3432C140.095 25.5912 139.643 24.903 139.275 24.4443L124.218 6.27241C122.528 4.6924 120.899 4.6924 119.208 6.27241L102.879 26.9626C102.002 28.0728 101.483 29.4224 101.389 30.8336L100.147 49.461Z" fill="#D57C05"/>
<path d="M135.466 11.0542C136.543 11.0542 137.417 11.9267 137.4 13.0027C137.308 18.6788 136.848 24.5223 136.388 30.3677L136.388 30.3685C135.929 36.213 135.469 42.0594 135.377 47.7389C135.359 48.8165 134.487 49.6891 133.41 49.6891H133.351H133.292H133.232H133.173H133.113H133.054H132.995H132.935H132.876H132.817H132.757H132.698H132.639H132.579H132.52H132.461H132.401H132.342H132.283H132.223H132.164H132.105H132.046H131.986H131.927H131.868H131.808H131.749H131.69H131.63H131.571H131.512H131.453H131.393H131.334H131.275H131.216H131.156H131.097H131.038H130.979H130.919H130.86H130.801H130.742H130.682H130.623H130.564H130.505H130.445H130.386H130.327H130.268H130.209H130.149H130.09H130.031H129.972H129.913H129.853H129.794H129.735H129.676H129.617H129.557H129.498H129.439H129.38H129.321H129.261H129.202H129.143H129.084H129.025H128.966H128.906H128.847H128.788H128.729H128.67H128.611H128.552H128.492H128.433H128.374H128.315H128.256H128.197H128.138H128.078H128.019H127.96H127.901H127.842H127.783H127.724H127.665H127.606H127.546H127.487H127.428H127.369H127.31H127.251H127.192H127.133H127.074H127.015H126.955H126.896H126.837H126.778H126.719H126.66H126.601H126.542H126.483H126.424H126.365H126.306H126.246H126.187H126.128H126.069H126.01H125.951H125.892H125.833H125.774H125.715H125.656H125.597H125.538H125.479H125.42H125.361H125.302H125.243H125.184H125.124H125.065H125.006H124.947H124.888H124.829H124.77H124.711H124.652H124.593H124.534H124.475H124.416H124.357H124.298H124.239H124.18H124.121H124.062H124.003H123.944H123.885H123.826H123.767H123.708H123.649H123.59H123.531H123.472H123.413H123.354H123.295H123.236H123.177H123.118H123.059H123H122.941H122.882H122.823H122.764H122.705H122.646H122.587H122.528H122.469H122.41H122.351H122.292H122.233H122.174H122.115H122.056H121.997H121.938H121.879H121.82H121.761H121.702H121.643H121.584H121.525H121.466H121.407H121.348H121.289H121.23H121.171H121.112H121.053H120.994H120.935H120.876H120.817H120.758H120.7H120.641H120.582H120.523H120.464H120.405H120.346H120.287H120.228H120.169H120.11H120.051H119.992H119.933H119.874H119.815H119.756H119.697H119.638H119.579H119.52H119.461H119.402H119.343H119.284H119.225H119.166H119.107H119.048H118.989H118.93H118.871H118.812H118.753H118.695H118.636H118.577H118.518H118.459H118.4H118.341H118.282H118.223H118.164H118.105H118.046H117.987H117.928H117.869H117.81H117.751H117.692H117.633H117.574H117.515H117.456H117.397H117.338H117.279H117.22H117.161H117.102H117.043H116.984H116.925H116.866H116.807H116.748H116.689H116.63H116.571H116.512H116.453H116.394H116.335H116.276H116.217H116.158H116.1H116.041H115.982H115.923H115.864H115.805H115.746H115.687H115.628H115.569H115.51H115.451H115.392H115.333H115.274H115.215H115.156H115.097H115.038H114.979H114.92H114.861H114.802H114.743H114.684H114.624H114.565H114.506H114.447H114.388H114.329H114.27H114.211H114.152H114.093H114.034H113.975H113.916H113.857H113.798H113.739H113.68H113.621H113.562H113.503H113.444H113.385H113.326H113.267H113.208H113.149H113.09H113.031H112.972H112.913H112.854H112.794H112.735H112.676H112.617H112.558H112.499H112.44H112.381H112.322H112.263H112.204H112.145H112.086H112.027H111.968H111.908H111.849H111.79H111.731H111.672H111.613H111.554H111.495H111.436H111.377H111.318H111.258H111.199H111.14H111.081H111.022H110.963H110.904H110.845H110.786H110.726H110.667H110.608H110.549H110.49H110.431H110.372H110.313H110.253H110.194H110.135H110.076H110.017H109.958H109.899H109.839H109.78H109.721H109.662H109.603H109.544H109.485H109.425H109.366H109.307H109.248H109.189H109.129H109.07H109.011H108.952H108.893H108.834H108.774H108.715H108.656H108.597H108.538H108.478H108.419H108.36H108.301H108.242H108.182H108.123H108.064H108.005H107.945H107.886H107.827H107.768H107.708H107.649H107.59H107.531H107.471H107.412H107.353H107.294H107.234H107.175H107.116H107.057H106.997H106.938H106.879H106.819H106.76H106.701H106.642H106.582H106.523H106.464H106.404H106.345H106.286H106.226H106.167H106.108H106.049H105.989H105.93H105.871H105.811H105.752H105.692H105.633H105.574H105.514H105.455H105.396H105.336H105.277H105.218H105.158H105.099H105.039H104.98H104.921H104.861H104.802H104.743H104.683H104.624H104.564H104.505H104.446H104.386H104.327H104.267H104.208H104.148H104.089H104.029H103.97H103.911H103.851H103.792H103.732H103.673H103.613H103.554H103.494H103.435H103.375H103.316H103.256H103.197H103.137C102.82 49.6891 102.661 49.6227 102.586 49.5227C102.51 49.4214 102.505 49.2677 102.545 49.0538C102.57 48.9222 102.609 48.7767 102.653 48.6167C102.68 48.5177 102.708 48.4133 102.735 48.303C102.806 48.0178 102.867 47.7015 102.867 47.3682C102.867 36.3411 103.527 26.3551 104.235 15.6383C104.296 14.7242 104.356 13.8048 104.417 12.879C104.484 11.8531 105.336 11.0542 106.364 11.0542L135.466 11.0542Z" fill="white" stroke="#828282" stroke-width="0.1"/>
<path d="M112.453 19.1304H113.702C114.165 18.5103 114.755 17.9632 115.439 17.5151L115.519 16.6393L115.52 16.6343L115.544 16.371C115.531 15.7901 115.074 15.3364 114.474 15.3364C113.826 15.3385 113.253 15.8597 113.195 16.5009C113.182 16.6336 113.192 16.7615 113.223 16.8788C113.106 16.8373 112.982 16.8163 112.851 16.8163C112.203 16.8163 111.631 17.3374 111.572 17.9786C111.518 18.5595 111.899 19.0413 112.453 19.1304L112.453 19.1304Z" fill="#0C7193"/>
<path d="M125.476 18.8307C125.543 18.9297 125.605 19.0287 125.661 19.1306H126.37H126.375H126.744C127.314 19.0421 127.783 18.5596 127.836 17.9787C127.895 17.3375 127.415 16.8164 126.77 16.8164C126.636 16.8164 126.509 16.8375 126.387 16.8789C126.439 16.7616 126.472 16.6338 126.484 16.501C126.543 15.8598 126.066 15.3387 125.418 15.3365C124.817 15.3365 124.277 15.7903 124.159 16.3711L124.135 16.6345L124.134 16.6394L124.063 17.4239C124.627 17.8067 125.104 18.2807 125.476 18.8307L125.476 18.8307Z" fill="#0C7193"/>
<path d="M113.134 21.8741C112.941 23.9797 113.795 25.2826 115.821 26.0566L115.644 28.0006C115.637 28.0708 115.66 28.1361 115.705 28.1853C115.748 28.2344 115.814 28.2611 115.882 28.2611H115.885L116.765 28.2506L116.851 27.3102C116.864 27.1641 116.993 27.0496 117.137 27.0496C117.284 27.0496 117.389 27.1641 117.376 27.3102L117.29 28.2429L118.596 28.2274L118.68 27.3102C118.693 27.1641 118.819 27.0496 118.966 27.0496C119.11 27.0496 119.218 27.1641 119.204 27.3102L119.121 28.2225L120.424 28.207L120.506 27.3101C120.519 27.1641 120.648 27.0496 120.792 27.0496C120.939 27.0496 121.044 27.1641 121.03 27.3101L120.949 28.1986L121.819 28.1881H121.868C122.012 28.1881 122.141 28.0708 122.154 27.9275L122.332 25.9862C123.757 25.4623 124.958 24.4621 125.486 23.0498C126.587 20.1027 124.381 16.7462 119.747 16.7462C116.465 16.7462 113.402 18.9403 113.134 21.8741L113.134 21.8741ZM121.348 21.254C121.894 20.9934 122.512 21.2048 122.727 21.7259C122.939 22.2443 122.669 22.8778 122.123 23.1383C121.574 23.3961 120.958 23.1875 120.744 22.6664C120.529 22.1452 120.799 21.5145 121.348 21.254ZM119.189 23.6046L119.972 25.1997H118.117L119.189 23.6046ZM116.7 21.1788C117.249 20.9182 117.867 21.1296 118.079 21.6508C118.294 22.1691 118.023 22.8026 117.478 23.0632C116.929 23.3237 116.311 23.1123 116.099 22.5912C115.884 22.0722 116.154 21.4394 116.7 21.1788Z" fill="#0C7193"/>
<path d="M125.22 30.3292C125.164 30.9416 124.638 31.4389 124.027 31.4831L123.85 31.4824C123.296 31.4389 122.882 31.0098 122.87 30.4591L122.894 30.1958L122.895 30.1908L122.987 29.1774L122.37 28.5024C122.54 28.3591 122.659 28.1534 122.68 27.9265L122.825 26.3315C122.957 26.2739 123.085 26.217 123.209 26.1517L124.626 27.6997H125.586H125.591H125.961C126.515 27.7881 126.895 28.2706 126.842 28.8515C126.784 29.4927 126.209 30.0138 125.564 30.0138C125.43 30.0138 125.306 29.9928 125.192 29.9513C125.223 30.0686 125.232 30.1965 125.22 30.3292Z" fill="#0C7193"/>
<path d="M114.257 30.4598C114.144 31.0105 113.652 31.4396 113.09 31.4831L112.912 31.4838C112.309 31.4396 111.874 30.9423 111.93 30.3299C111.942 30.1972 111.975 30.0693 112.027 29.952C111.903 29.9935 111.776 30.0145 111.644 30.0145C110.996 30.0145 110.519 29.4934 110.578 28.8522C110.631 28.2707 111.1 27.7889 111.67 27.7004L113.005 27.7011L114.717 26.1426C114.89 26.236 115.07 26.3273 115.265 26.4109L115.119 28.0003C115.105 28.1541 115.136 28.3002 115.204 28.4224L114.374 29.1781L114.281 30.1915L114.281 30.1965L114.257 30.4598Z" fill="#0C7193"/>
<path d="M100.147 49.4606C100.032 51.1923 101.405 52.6605 103.141 52.6605H135.878C137.101 52.6605 138.092 51.6719 138.092 50.4521L140.095 26.3432C140.095 25.876 139.949 25.4431 139.701 25.0863L121.214 44.9096C119.524 46.4896 116.893 46.4896 115.203 44.9096L101.401 30.6961L100.147 49.4606Z" fill="#FDC804"/>
<path d="M100.782 51.5006C101.35 52.2324 102.224 52.6606 103.151 52.6606H135.878C136.632 52.6606 137.298 52.2839 137.698 51.7093L121.563 33.498C119.872 31.918 117.242 31.918 115.551 33.498L100.717 51.4177L100.782 51.5006Z" fill="#FFDB2D"/>
<path d="M39.8443 13.279C40.5583 13.279 41.1873 13.449 41.7313 13.789C42.2866 14.1177 42.7173 14.5937 43.0233 15.217C43.3293 15.8403 43.4823 16.5657 43.4823 17.393C43.4823 18.3337 43.3123 19.161 42.9723 19.875C42.6436 20.589 42.179 21.1443 41.5783 21.541C40.9776 21.9263 40.2863 22.119 39.5043 22.119C38.8016 22.119 38.1896 21.966 37.6683 21.66C37.147 21.3427 36.7673 20.9007 36.5293 20.334L36.1043 25.672H35.0843L35.8663 15.846C35.9116 15.3813 35.9343 14.8543 35.9343 14.265C35.9343 13.9137 35.9286 13.653 35.9173 13.483H36.8863L36.9033 14.945C37.1753 14.4237 37.5776 14.0157 38.1103 13.721C38.643 13.4263 39.221 13.279 39.8443 13.279ZM39.5043 21.218C40.411 21.218 41.1193 20.878 41.6293 20.198C42.1506 19.5067 42.4113 18.5603 42.4113 17.359C42.4113 16.3503 42.1676 15.5683 41.6803 15.013C41.2043 14.4463 40.5356 14.163 39.6743 14.163C38.7563 14.163 38.031 14.5087 37.4983 15.2C36.977 15.8913 36.7163 16.8433 36.7163 18.056C36.7163 19.0873 36.9543 19.875 37.4303 20.419C37.9063 20.9517 38.5976 21.218 39.5043 21.218ZM49.5993 13.279C50.5513 13.279 51.2766 13.5227 51.7753 14.01C52.2853 14.486 52.5403 15.2 52.5403 16.152C52.5403 16.356 52.5346 16.509 52.5233 16.611L52.0983 22H51.0783L51.5033 16.679C51.5146 16.5883 51.5203 16.4523 51.5203 16.271C51.5203 15.557 51.3503 15.03 51.0103 14.69C50.6703 14.35 50.1546 14.18 49.4633 14.18C48.5906 14.18 47.8936 14.435 47.3723 14.945C46.8623 15.455 46.5733 16.1633 46.5053 17.07L46.1143 22H45.0773L46.0633 9.488H47.1003L46.6753 14.843C46.9586 14.333 47.3553 13.9477 47.8653 13.687C48.3753 13.415 48.9533 13.279 49.5993 13.279ZM55.2624 13.483H56.2994L55.6194 22H54.5824L55.2624 13.483ZM56.7244 9.964L56.6224 11.29H55.2454L55.3474 9.964H56.7244ZM60.9495 22.119C60.3149 22.119 59.7085 22.0227 59.1305 21.83C58.5639 21.626 58.0765 21.3427 57.6685 20.98L58.1275 20.198C58.5922 20.5607 59.0455 20.827 59.4875 20.997C59.9295 21.1557 60.4225 21.235 60.9665 21.235C61.7145 21.235 62.2812 21.116 62.6665 20.878C63.0632 20.6287 63.2615 20.2603 63.2615 19.773C63.2615 19.467 63.1652 19.2177 62.9725 19.025C62.7912 18.8323 62.5589 18.6793 62.2755 18.566C61.9922 18.4413 61.6125 18.311 61.1365 18.175C60.5359 17.9937 60.0542 17.8237 59.6915 17.665C59.3289 17.5063 59.0172 17.274 58.7565 16.968C58.5072 16.662 58.3825 16.2597 58.3825 15.761C58.3825 14.9903 58.6715 14.384 59.2495 13.942C59.8389 13.5 60.6322 13.279 61.6295 13.279C62.2302 13.279 62.7912 13.381 63.3125 13.585C63.8339 13.7777 64.2589 14.0497 64.5875 14.401L64.1285 15.2C63.3579 14.5087 62.5305 14.163 61.6465 14.163C60.9325 14.163 60.3829 14.2933 59.9975 14.554C59.6122 14.8147 59.4195 15.2 59.4195 15.71C59.4195 16.016 59.5102 16.2653 59.6915 16.458C59.8842 16.6507 60.1165 16.8037 60.3885 16.917C60.6719 17.019 61.0572 17.1437 61.5445 17.291C62.1339 17.461 62.6099 17.6253 62.9725 17.784C63.3465 17.9427 63.6639 18.1807 63.9245 18.498C64.1852 18.804 64.3155 19.212 64.3155 19.722C64.3155 20.4587 64.0095 21.0423 63.3975 21.473C62.7855 21.9037 61.9695 22.119 60.9495 22.119ZM70.6759 13.279C71.6279 13.279 72.3533 13.5227 72.8519 14.01C73.3619 14.486 73.6169 15.2 73.6169 16.152C73.6169 16.356 73.6113 16.509 73.5999 16.611L73.1749 22H72.1549L72.5799 16.679C72.5913 16.5883 72.5969 16.4523 72.5969 16.271C72.5969 15.557 72.4269 15.03 72.0869 14.69C71.7469 14.35 71.2313 14.18 70.5399 14.18C69.6673 14.18 68.9703 14.435 68.4489 14.945C67.9389 15.455 67.6499 16.1633 67.5819 17.07L67.1909 22H66.1539L67.1399 9.488H68.1769L67.7519 14.843C68.0353 14.333 68.4319 13.9477 68.9419 13.687C69.4519 13.415 70.0299 13.279 70.6759 13.279ZM76.3391 13.483H77.3761L76.6961 22H75.6591L76.3391 13.483ZM77.8011 9.964L77.6991 11.29H76.3221L76.4241 9.964H77.8011ZM83.6922 13.279C84.6442 13.279 85.3696 13.5227 85.8682 14.01C86.3782 14.486 86.6332 15.2 86.6332 16.152C86.6332 16.356 86.6276 16.509 86.6162 16.611L86.1912 22H85.1712L85.5962 16.679C85.6076 16.5883 85.6132 16.4523 85.6132 16.271C85.6132 15.557 85.4432 15.03 85.1032 14.69C84.7632 14.35 84.2476 14.18 83.5562 14.18C82.6836 14.18 81.9866 14.435 81.4652 14.945C80.9552 15.455 80.6662 16.1633 80.5982 17.07L80.2072 22H79.1702L79.6632 15.846C79.7086 15.3813 79.7312 14.8543 79.7312 14.265C79.7312 13.9137 79.7256 13.653 79.7142 13.483H80.6832L80.7002 14.962C80.9836 14.418 81.3859 14.0043 81.9072 13.721C82.4286 13.4263 83.0236 13.279 83.6922 13.279ZM96.6143 13.483L95.9343 22.034C95.7303 24.5387 94.4553 25.791 92.1093 25.791C90.8513 25.791 89.7407 25.4793 88.7773 24.856L89.0663 23.955C89.599 24.3063 90.092 24.55 90.5453 24.686C90.9987 24.822 91.5257 24.89 92.1263 24.89C93.8377 24.89 94.7727 23.9493 94.9313 22.068L95.1013 20.13C94.8293 20.64 94.427 21.0367 93.8943 21.32C93.373 21.6033 92.8007 21.745 92.1773 21.745C91.044 21.745 90.143 21.388 89.4743 20.674C88.8057 19.96 88.4713 19.0023 88.4713 17.801C88.4713 16.9057 88.6357 16.118 88.9643 15.438C89.293 14.7467 89.7577 14.214 90.3583 13.84C90.9703 13.466 91.673 13.279 92.4663 13.279C93.1803 13.279 93.798 13.432 94.3193 13.738C94.8407 14.044 95.226 14.4747 95.4753 15.03L95.5943 13.483H96.6143ZM92.3303 20.827C93.2483 20.827 93.9737 20.504 94.5063 19.858C95.039 19.212 95.3053 18.3223 95.3053 17.189C95.3053 16.2257 95.056 15.4833 94.5573 14.962C94.07 14.4293 93.39 14.163 92.5173 14.163C91.588 14.163 90.857 14.4917 90.3243 15.149C89.803 15.795 89.5423 16.6903 89.5423 17.835C89.5423 18.8097 89.7803 19.552 90.2563 20.062C90.7323 20.572 91.4237 20.827 92.3303 20.827Z" fill="#07485E"/>
</svg>
