<svg width="1360" height="750" viewBox="0 0 1360 750" fill="none" xmlns="http://www.w3.org/2000/svg">
<path d="M364.591 750H418.051L679.831 375.241L679.819 375.215L364.591 750Z" fill="#F7F6F6"/>
<path d="M504.586 750H543.787L679.877 375.339L679.859 375.301L504.586 750Z" fill="#F7F6F6"/>
<path d="M613.318 750H647.464L679.956 375.508L679.922 375.436L613.318 750Z" fill="#F7F6F6"/>
<path d="M712.537 750H746.681L680.172 375.97L680.065 375.74L712.537 750Z" fill="#F7F6F6"/>
<path d="M816.213 750H855.19L680.977 377.688L816.213 750Z" fill="#F7F6F6"/>
<path d="M941.752 750H995.261L680.214 375.589L680.305 375.839L941.752 750Z" fill="#F7F6F6"/>
<path d="M1125.76 750H1216.83L680.096 375.263L680.124 375.341L1125.76 750Z" fill="#F7F6F6"/>
<path d="M1360 693.055V621.6L680.043 375.118L680.058 375.159L1360 693.055Z" fill="#F7F6F6"/>
<path d="M1360 495.72V433.692L680.009 375.025L680.019 375.053L1360 495.72Z" fill="#F7F6F6"/>
<path d="M1360 316.307V254.277L679.991 374.952L679.996 374.976L1360 316.307Z" fill="#F7F6F6"/>
<path d="M1360 128.398V56.9425L679.978 374.879L679.983 374.904L1360 128.398Z" fill="#F7F6F6"/>
<path d="M1216.83 0H1125.75L679.963 374.794L679.969 374.825L1216.83 0Z" fill="#F7F6F6"/>
<path d="M995.255 0H941.752L679.943 374.679L679.951 374.724L995.255 0Z" fill="#F7F6F6"/>
<path d="M855.189 0H815.768L679.908 374.479L679.923 374.564L855.189 0Z" fill="#F7F6F6"/>
<path d="M746.319 0H712.098L679.811 373.934L679.859 374.208L746.319 0Z" fill="#F7F6F6"/>
<path d="M647.337 0H613.425L679.452 371.914L647.337 0Z" fill="#F7F6F6"/>
<path d="M544.006 0H504.601L679.655 374.262L679.631 373.981L544.006 0Z" fill="#F7F6F6"/>
<path d="M418.074 0H364.59L679.686 374.627L679.679 374.54L418.074 0Z" fill="#F7F6F6"/>
<path d="M234.146 0H143.11L679.701 374.791L679.697 374.745L234.146 0Z" fill="#F7F6F6"/>
<path d="M234.146 750H143.11L679.788 375.148L679.798 375.17L234.146 750Z" fill="#F7F6F6"/>
<path d="M679.707 374.863L0 56.9447V128.399L679.709 374.895L679.707 374.863Z" fill="#F7F6F6"/>
<path d="M0 254.28V316.308L679.716 374.976L679.714 374.949L0 254.28Z" fill="#F7F6F6"/>
<path d="M0 433.693V495.722L679.74 375.046L679.729 375.023L0 433.693Z" fill="#F7F6F6"/>
<path d="M0 621.602V693.056L679.769 375.108L679.759 375.087L0 621.602Z" fill="#F7F6F6"/>
<path d="M679.859 375.201L679.846 375.183L679.859 375.167L679.872 375.183L679.859 375.201Z" fill="#F7F6F6"/>
<path d="M679.823 375.149L679.835 375.139L679.823 375.124L679.811 375.132L679.823 375.149Z" fill="#F7F6F6"/>
<path d="M679.896 375.149L679.883 375.139L679.896 375.124L679.908 375.132L679.896 375.149Z" fill="#F7F6F6"/>
<path d="M679.859 375.118L679.872 375.107L679.859 375.098L679.846 375.107L679.859 375.118Z" fill="#F7F6F6"/>
<path d="M679.931 375.099L679.921 375.094L679.934 375.078L679.943 375.081L679.931 375.099Z" fill="#F7F6F6"/>
<path d="M679.899 375.085L679.915 375.071L679.904 375.067L679.887 375.079L679.899 375.085Z" fill="#F7F6F6"/>
<path d="M679.969 375.044L679.963 375.043L679.981 375.023L679.984 375.023L679.969 375.044Z" fill="#F7F6F6"/>
<path d="M679.951 375.041L679.974 375.022L679.969 375.022L679.943 375.04L679.951 375.041Z" fill="#F7F6F6"/>
<path d="M679.923 375.036L679.956 375.021L679.946 375.02L679.908 375.034L679.923 375.036Z" fill="#F7F6F6"/>
<path d="M679.859 375.025L679.908 375.016L679.859 375.012L679.811 375.016L679.859 375.025Z" fill="#F7F6F6"/>
<path d="M679.75 375.044L679.735 375.023L679.738 375.023L679.755 375.043L679.75 375.044Z" fill="#F7F6F6"/>
<path d="M679.745 375.022L679.75 375.022L679.776 375.04L679.768 375.041L679.745 375.022Z" fill="#F7F6F6"/>
<path d="M679.803 375.071L679.815 375.067L679.831 375.079L679.819 375.085L679.803 375.071Z" fill="#F7F6F6"/>
<path d="M679.841 375.058L679.859 375.066L679.877 375.058L679.859 375.051L679.841 375.058Z" fill="#F7F6F6"/>
<path d="M679.762 375.021L679.796 375.036L679.811 375.034L679.773 375.02L679.762 375.021Z" fill="#F7F6F6"/>
<path d="M679.784 375.078L679.798 375.095L679.788 375.099L679.775 375.081L679.784 375.078Z" fill="#F7F6F6"/>
<path d="M679.811 374.984L679.859 374.988L679.908 374.984L679.859 374.975L679.811 374.984Z" fill="#F7F6F6"/>
<path d="M679.983 374.953L679.991 374.976L679.989 374.977L679.978 374.954L679.983 374.953Z" fill="#F7F6F6"/>
<path d="M679.969 374.956L679.984 374.977L679.981 374.977L679.963 374.957L679.969 374.956Z" fill="#F7F6F6"/>
<path d="M679.951 374.959L679.974 374.978L679.969 374.978L679.943 374.96L679.951 374.959Z" fill="#F7F6F6"/>
<path d="M679.946 374.98L679.956 374.98L679.923 374.964L679.908 374.967L679.946 374.98Z" fill="#F7F6F6"/>
<path d="M679.915 374.929L679.904 374.933L679.887 374.921L679.899 374.915L679.915 374.929Z" fill="#F7F6F6"/>
<path d="M679.877 374.943L679.859 374.934L679.841 374.943L679.859 374.949L679.877 374.943Z" fill="#F7F6F6"/>
<path d="M679.872 374.893L679.859 374.902L679.846 374.893L679.859 374.882L679.872 374.893Z" fill="#F7F6F6"/>
<path d="M679.831 374.921L679.819 374.915L679.803 374.929L679.815 374.933L679.831 374.921Z" fill="#F7F6F6"/>
<path d="M679.835 374.861L679.823 374.876L679.811 374.868L679.823 374.851L679.835 374.861Z" fill="#F7F6F6"/>
<path d="M679.798 374.906L679.788 374.901L679.775 374.919L679.784 374.922L679.798 374.906Z" fill="#F7F6F6"/>
<path d="M679.798 374.83L679.788 374.852L679.775 374.843L679.784 374.819L679.798 374.83Z" fill="#F7F6F6"/>
<path d="M679.769 374.892L679.759 374.887L679.751 374.91L679.759 374.913L679.769 374.892Z" fill="#F7F6F6"/>
<path d="M679.755 374.794L679.75 374.825L679.735 374.815L679.738 374.779L679.755 374.794Z" fill="#F7F6F6"/>
<path d="M679.74 374.879L679.729 374.874L679.727 374.901L679.736 374.904L679.74 374.879Z" fill="#F7F6F6"/>
<path d="M679.721 374.976L679.723 374.951L679.727 374.952L679.723 374.976L679.721 374.976Z" fill="#F7F6F6"/>
<path d="M679.727 374.976L679.736 374.953L679.74 374.954L679.729 374.977L679.727 374.976Z" fill="#F7F6F6"/>
<path d="M679.735 374.977L679.75 374.956L679.755 374.957L679.738 374.977L679.735 374.977Z" fill="#F7F6F6"/>
<path d="M679.745 374.978L679.768 374.959L679.776 374.96L679.75 374.978L679.745 374.978Z" fill="#F7F6F6"/>
<path d="M679.762 374.98L679.796 374.964L679.811 374.967L679.773 374.98L679.762 374.98Z" fill="#F7F6F6"/>
<path d="M679.768 374.724L679.745 374.697L679.75 374.641L679.776 374.679L679.768 374.724Z" fill="#F7F6F6"/>
<path d="M679.796 374.564L679.762 374.492L679.773 374.373L679.811 374.479L679.796 374.564Z" fill="#F7F6F6"/>
<path d="M679.841 374.661L679.859 374.612L679.877 374.661L679.859 374.699L679.841 374.661Z" fill="#F7F6F6"/>
<path d="M679.887 374.759L679.904 374.735L679.915 374.766L679.899 374.785L679.887 374.759Z" fill="#F7F6F6"/>
<path d="M679.921 374.83L679.934 374.819L679.943 374.843L679.931 374.852L679.921 374.83Z" fill="#F7F6F6"/>
<path d="M679.95 374.892L679.959 374.888L679.967 374.91L679.959 374.913L679.95 374.892Z" fill="#F7F6F6"/>
<path d="M679.931 374.901L679.943 374.919L679.934 374.922L679.921 374.906L679.931 374.901Z" fill="#F7F6F6"/>
<path d="M679.908 374.868L679.896 374.876L679.883 374.861L679.896 374.851L679.908 374.868Z" fill="#F7F6F6"/>
<path d="M679.872 374.817L679.859 374.833L679.846 374.817L679.859 374.799L679.872 374.817Z" fill="#F7F6F6"/>
<path d="M679.831 374.759L679.819 374.785L679.803 374.766L679.815 374.735L679.831 374.759Z" fill="#F7F6F6"/>
<path d="M679.989 375.023L679.978 375.046L679.983 375.047L679.991 375.024L679.989 375.023Z" fill="#F7F6F6"/>
<path d="M679.959 375.087L679.95 375.108L679.959 375.113L679.967 375.09L679.959 375.087Z" fill="#F7F6F6"/>
<path d="M679.931 375.148L679.921 375.17L679.934 375.181L679.943 375.157L679.931 375.148Z" fill="#F7F6F6"/>
<path d="M679.899 375.215L679.887 375.241L679.904 375.265L679.915 375.234L679.899 375.215Z" fill="#F7F6F6"/>
<path d="M679.969 375.359L679.943 375.321L679.951 375.276L679.974 375.304L679.969 375.359Z" fill="#F7F6F6"/>
<path d="M679.981 375.221L679.963 375.206L679.969 375.175L679.984 375.186L679.981 375.221Z" fill="#F7F6F6"/>
<path d="M679.992 375.099L679.99 375.127L679.978 375.121L679.983 375.096L679.992 375.099Z" fill="#F7F6F6"/>
<path d="M679.996 375.049L679.991 375.048L679.996 375.024L679.998 375.024L679.996 375.049Z" fill="#F7F6F6"/>
<path d="M680.004 375.025L680.005 375.051L680.009 375.052L680.004 375.025Z" fill="#F7F6F6"/>
<path d="M680.012 375.137L680.026 375.144L680.019 375.109L680.01 375.106L680.012 375.137Z" fill="#F7F6F6"/>
<path d="M680.019 375.21L680.023 375.256L680.049 375.278L680.04 375.224L680.019 375.21Z" fill="#F7F6F6"/>
<path d="M680.033 375.374L680.041 375.461L680.096 375.54L680.075 375.424L680.033 375.374Z" fill="#F7F6F6"/>
</svg>
